<?xml version="1.0" encoding="utf-8"?>
<!-- Generator: Adobe Illustrator 21.0.0, SVG Export Plug-In . SVG Version: 6.00 Build 0)  -->
<svg version="1.1" xmlns="http://www.w3.org/2000/svg" xmlns:xlink="http://www.w3.org/1999/xlink" x="0px" y="0px"
	 viewBox="0 0 113.4 113.4" style="enable-background:new 0 0 113.4 113.4;" xml:space="preserve">
<style type="text/css">
	.st0{fill:#FFFFFF;}
</style>
<g id="Layer_1">
</g>
<g id="Layer_2">
	<g>
		<path class="st0" d="M0.2,54.5c0,0,0.6,0.1,0.6,0.3c0,0.2,0,2.9,0,3.3c0,1.1,3,0.8,3,0.8s-0.5-0.2-0.5-0.4s0-2.8,0-3.3
			S1.4,54.1,0.2,54.5z"/>
		<path class="st0" d="M3.4,53.4c0,0,1,0.3,1,0.5s0,4.5,0,5.1c0,1.6,5.1,1.1,5.1,1.1s-1.1-0.5-1.1-0.8s0-4,0-4.9S5.3,52.7,3.4,53.4z
			"/>
	</g>
	<g>
		<path class="st0" d="M113.4,58.8c0,0-0.6-0.1-0.6-0.3s0-2.9,0-3.3c0-1.1-3-0.8-3-0.8s0.5,0.2,0.5,0.4s0,2.8,0,3.3
			C110.3,58.8,112.1,59.3,113.4,58.8z"/>
		<path class="st0" d="M110.2,60c0,0-1-0.3-1-0.5c0-0.3,0-4.5,0-5.1c0-1.6-5.1-1.1-5.1-1.1s1.1,0.5,1.1,0.8s0,4,0,4.9
			C105.2,59.8,108.2,60.7,110.2,60z"/>
	</g>
	<rect x="7.8" y="55.3" class="st0" width="97.9" height="2.9"/>
</g>
</svg>
