<?xml version="1.0" encoding="utf-8"?>
<!-- Generator: Adobe Illustrator 21.0.0, SVG Export Plug-In . SVG Version: 6.00 Build 0)  -->
<svg version="1.1" id="Layer_1" xmlns="http://www.w3.org/2000/svg" xmlns:xlink="http://www.w3.org/1999/xlink" x="0px" y="0px"
	 viewBox="0 0 35 35" style="enable-background:new 0 0 35 35;" xml:space="preserve">
<style type="text/css">
	.st0{fill:#E6E7E8;}
	.st1{fill:#FF6700;}
</style>
<g>
	<path class="st0" d="M17.5,35C7.9,35,0,27.1,0,17.5S7.9,0,17.5,0S35,7.9,35,17.5S27.1,35,17.5,35z M17.5,2.2
		C9.1,2.2,2.2,9.1,2.2,17.5c0,8.4,6.9,15.3,15.3,15.3c8.4,0,15.3-6.9,15.3-15.3C32.8,9.1,25.9,2.2,17.5,2.2z"/>
</g>
<g>
	<path class="st1" d="M35,17.5h-2.2c0-8.4-6.9-15.3-15.3-15.3V0C27.1,0,35,7.9,35,17.5z"/>
</g>
</svg>
